# xmcd CD database file
#
# Track frame offsets:
#	225
#	13150
#	26843
#	41932
#	56182
#	70055
#	87054
#	99006
#	115169
#	129960
#	142785
#	153560
#	169859
#	185911
#	202345
#	213716
#	224697
#	237885
#
# Disc length: 3334 seconds
#
# Revision: 0
# Processed by: cddbd v1.5.2PL0 Copyright (c) Steve Scherf et al.
# Submitted via: CDex 1.51
#
DISCID=110d0312
DTITLE=Sambler - Golden Hits  -  1957 bis 1988
DYEAR=1988
DGENRE=Country
TTITLE0=Archies - Sugar, Sugar
TTITLE1=Daniel Boone - Beautiful Sunday
TTITLE2=David Dundas - Jean On
TTITLE3=Small Faces - Sazy Sunday
TTITLE4=Mc Coys - Hang On Sloopy
TTITLE5=The Bellamy Brothers - Crossfire
TTITLE6=Gilbert O' Sullivan - Get Down
TTITLE7=Gene Pitney - Something's Gotten Hold Of My Heart
TTITLE8=Petula Clark - Downtown
TTITLE9=Tom Jones - She's A Lady
TTITLE10=Roger Miller - King Of The Road
TTITLE11=Nina Simone - My Baby Just Cares For Me
TTITLE12=Randy van Warmer - Just When I Needed You Most
TTITLE13=Lou Rawls - Lady Love
TTITLE14=B.J. Thomas - Raindrops Keep Falling On My Head
TTITLE15=New Vaudeville Band - Winchester Cathedral
TTITLE16=Showaddywaddy - Tree Steps To Heaven
TTITLE17=Jackie Wilson - Reet Petite
EXTD=YEAR: 1988
EXTT0=
EXTT1=
EXTT2=
EXTT3=
EXTT4=
EXTT5=
EXTT6=
EXTT7=
EXTT8=
EXTT9=
EXTT10=
EXTT11=
EXTT12=
EXTT13=
EXTT14=
EXTT15=
EXTT16=
EXTT17=
PLAYORDER=
